<svg xmlns="http://www.w3.org/2000/svg" viewBox="0 0 45 45" width="1024" height="1024" shape-rendering="crispEdges"><title>QR: https://tanapolthk-dev.github.io/check-duang-di/?utm_source=line&amp;utm_medium=social</title><rect width="45" height="45" fill="#FFFFFF"/><path d="M4 4h1v1h-1zM5 4h1v1h-1zM6 4h1v1h-1zM7 4h1v1h-1zM8 4h1v1h-1zM9 4h1v1h-1zM10 4h1v1h-1zM12 4h1v1h-1zM13 4h1v1h-1zM15 4h1v1h-1zM20 4h1v1h-1zM21 4h1v1h-1zM26 4h1v1h-1zM29 4h1v1h-1zM30 4h1v1h-1zM34 4h1v1h-1zM35 4h1v1h-1zM36 4h1v1h-1zM37 4h1v1h-1zM38 4h1v1h-1zM39 4h1v1h-1zM40 4h1v1h-1zM4 5h1v1h-1zM10 5h1v1h-1zM12 5h1v1h-1zM16 5h1v1h-1zM17 5h1v1h-1zM19 5h1v1h-1zM20 5h1v1h-1zM21 5h1v1h-1zM22 5h1v1h-1zM23 5h1v1h-1zM28 5h1v1h-1zM29 5h1v1h-1zM32 5h1v1h-1zM34 5h1v1h-1zM40 5h1v1h-1zM4 6h1v1h-1zM6 6h1v1h-1zM7 6h1v1h-1zM8 6h1v1h-1zM10 6h1v1h-1zM12 6h1v1h-1zM13 6h1v1h-1zM23 6h1v1h-1zM24 6h1v1h-1zM25 6h1v1h-1zM29 6h1v1h-1zM32 6h1v1h-1zM34 6h1v1h-1zM36 6h1v1h-1zM37 6h1v1h-1zM38 6h1v1h-1zM40 6h1v1h-1zM4 7h1v1h-1zM6 7h1v1h-1zM7 7h1v1h-1zM8 7h1v1h-1zM10 7h1v1h-1zM13 7h1v1h-1zM14 7h1v1h-1zM16 7h1v1h-1zM19 7h1v1h-1zM21 7h1v1h-1zM23 7h1v1h-1zM24 7h1v1h-1zM25 7h1v1h-1zM28 7h1v1h-1zM29 7h1v1h-1zM34 7h1v1h-1zM36 7h1v1h-1zM37 7h1v1h-1zM38 7h1v1h-1zM40 7h1v1h-1zM4 8h1v1h-1zM6 8h1v1h-1zM7 8h1v1h-1zM8 8h1v1h-1zM10 8h1v1h-1zM12 8h1v1h-1zM14 8h1v1h-1zM16 8h1v1h-1zM17 8h1v1h-1zM19 8h1v1h-1zM20 8h1v1h-1zM21 8h1v1h-1zM22 8h1v1h-1zM23 8h1v1h-1zM26 8h1v1h-1zM30 8h1v1h-1zM32 8h1v1h-1zM34 8h1v1h-1zM36 8h1v1h-1zM37 8h1v1h-1zM38 8h1v1h-1zM40 8h1v1h-1zM4 9h1v1h-1zM10 9h1v1h-1zM13 9h1v1h-1zM15 9h1v1h-1zM17 9h1v1h-1zM18 9h1v1h-1zM19 9h1v1h-1zM22 9h1v1h-1zM24 9h1v1h-1zM27 9h1v1h-1zM30 9h1v1h-1zM32 9h1v1h-1zM34 9h1v1h-1zM40 9h1v1h-1zM4 10h1v1h-1zM5 10h1v1h-1zM6 10h1v1h-1zM7 10h1v1h-1zM8 10h1v1h-1zM9 10h1v1h-1zM10 10h1v1h-1zM12 10h1v1h-1zM14 10h1v1h-1zM16 10h1v1h-1zM18 10h1v1h-1zM20 10h1v1h-1zM22 10h1v1h-1zM24 10h1v1h-1zM26 10h1v1h-1zM28 10h1v1h-1zM30 10h1v1h-1zM32 10h1v1h-1zM34 10h1v1h-1zM35 10h1v1h-1zM36 10h1v1h-1zM37 10h1v1h-1zM38 10h1v1h-1zM39 10h1v1h-1zM40 10h1v1h-1zM14 11h1v1h-1zM15 11h1v1h-1zM16 11h1v1h-1zM17 11h1v1h-1zM19 11h1v1h-1zM20 11h1v1h-1zM26 11h1v1h-1zM27 11h1v1h-1zM29 11h1v1h-1zM32 11h1v1h-1zM4 12h1v1h-1zM7 12h1v1h-1zM8 12h1v1h-1zM9 12h1v1h-1zM10 12h1v1h-1zM11 12h1v1h-1zM12 12h1v1h-1zM13 12h1v1h-1zM15 12h1v1h-1zM17 12h1v1h-1zM18 12h1v1h-1zM19 12h1v1h-1zM21 12h1v1h-1zM24 12h1v1h-1zM25 12h1v1h-1zM32 12h1v1h-1zM33 12h1v1h-1zM36 12h1v1h-1zM38 12h1v1h-1zM39 12h1v1h-1zM40 12h1v1h-1zM4 13h1v1h-1zM7 13h1v1h-1zM8 13h1v1h-1zM9 13h1v1h-1zM11 13h1v1h-1zM12 13h1v1h-1zM13 13h1v1h-1zM17 13h1v1h-1zM20 13h1v1h-1zM21 13h1v1h-1zM22 13h1v1h-1zM23 13h1v1h-1zM24 13h1v1h-1zM27 13h1v1h-1zM29 13h1v1h-1zM31 13h1v1h-1zM35 13h1v1h-1zM36 13h1v1h-1zM37 13h1v1h-1zM39 13h1v1h-1zM5 14h1v1h-1zM9 14h1v1h-1zM10 14h1v1h-1zM11 14h1v1h-1zM13 14h1v1h-1zM14 14h1v1h-1zM16 14h1v1h-1zM19 14h1v1h-1zM20 14h1v1h-1zM21 14h1v1h-1zM22 14h1v1h-1zM25 14h1v1h-1zM26 14h1v1h-1zM27 14h1v1h-1zM30 14h1v1h-1zM31 14h1v1h-1zM34 14h1v1h-1zM36 14h1v1h-1zM40 14h1v1h-1zM5 15h1v1h-1zM7 15h1v1h-1zM9 15h1v1h-1zM13 15h1v1h-1zM16 15h1v1h-1zM17 15h1v1h-1zM20 15h1v1h-1zM21 15h1v1h-1zM22 15h1v1h-1zM24 15h1v1h-1zM26 15h1v1h-1zM27 15h1v1h-1zM31 15h1v1h-1zM32 15h1v1h-1zM33 15h1v1h-1zM34 15h1v1h-1zM35 15h1v1h-1zM37 15h1v1h-1zM38 15h1v1h-1zM39 15h1v1h-1zM40 15h1v1h-1zM5 16h1v1h-1zM7 16h1v1h-1zM9 16h1v1h-1zM10 16h1v1h-1zM11 16h1v1h-1zM12 16h1v1h-1zM13 16h1v1h-1zM16 16h1v1h-1zM18 16h1v1h-1zM19 16h1v1h-1zM20 16h1v1h-1zM24 16h1v1h-1zM27 16h1v1h-1zM28 16h1v1h-1zM31 16h1v1h-1zM32 16h1v1h-1zM34 16h1v1h-1zM37 16h1v1h-1zM40 16h1v1h-1zM4 17h1v1h-1zM6 17h1v1h-1zM7 17h1v1h-1zM9 17h1v1h-1zM11 17h1v1h-1zM12 17h1v1h-1zM15 17h1v1h-1zM16 17h1v1h-1zM19 17h1v1h-1zM20 17h1v1h-1zM21 17h1v1h-1zM22 17h1v1h-1zM24 17h1v1h-1zM25 17h1v1h-1zM27 17h1v1h-1zM30 17h1v1h-1zM31 17h1v1h-1zM32 17h1v1h-1zM36 17h1v1h-1zM37 17h1v1h-1zM4 18h1v1h-1zM7 18h1v1h-1zM10 18h1v1h-1zM11 18h1v1h-1zM12 18h1v1h-1zM13 18h1v1h-1zM15 18h1v1h-1zM16 18h1v1h-1zM18 18h1v1h-1zM19 18h1v1h-1zM21 18h1v1h-1zM23 18h1v1h-1zM24 18h1v1h-1zM28 18h1v1h-1zM29 18h1v1h-1zM30 18h1v1h-1zM31 18h1v1h-1zM33 18h1v1h-1zM36 18h1v1h-1zM37 18h1v1h-1zM38 18h1v1h-1zM40 18h1v1h-1zM4 19h1v1h-1zM6 19h1v1h-1zM11 19h1v1h-1zM12 19h1v1h-1zM14 19h1v1h-1zM23 19h1v1h-1zM27 19h1v1h-1zM31 19h1v1h-1zM33 19h1v1h-1zM34 19h1v1h-1zM35 19h1v1h-1zM37 19h1v1h-1zM38 19h1v1h-1zM39 19h1v1h-1zM4 20h1v1h-1zM6 20h1v1h-1zM7 20h1v1h-1zM8 20h1v1h-1zM9 20h1v1h-1zM10 20h1v1h-1zM13 20h1v1h-1zM14 20h1v1h-1zM15 20h1v1h-1zM17 20h1v1h-1zM19 20h1v1h-1zM23 20h1v1h-1zM24 20h1v1h-1zM26 20h1v1h-1zM29 20h1v1h-1zM32 20h1v1h-1zM34 20h1v1h-1zM35 20h1v1h-1zM38 20h1v1h-1zM40 20h1v1h-1zM5 21h1v1h-1zM6 21h1v1h-1zM8 21h1v1h-1zM17 21h1v1h-1zM18 21h1v1h-1zM21 21h1v1h-1zM22 21h1v1h-1zM23 21h1v1h-1zM24 21h1v1h-1zM25 21h1v1h-1zM26 21h1v1h-1zM29 21h1v1h-1zM31 21h1v1h-1zM34 21h1v1h-1zM35 21h1v1h-1zM37 21h1v1h-1zM38 21h1v1h-1zM5 22h1v1h-1zM6 22h1v1h-1zM7 22h1v1h-1zM8 22h1v1h-1zM10 22h1v1h-1zM11 22h1v1h-1zM12 22h1v1h-1zM13 22h1v1h-1zM14 22h1v1h-1zM16 22h1v1h-1zM20 22h1v1h-1zM21 22h1v1h-1zM23 22h1v1h-1zM25 22h1v1h-1zM26 22h1v1h-1zM27 22h1v1h-1zM28 22h1v1h-1zM30 22h1v1h-1zM31 22h1v1h-1zM33 22h1v1h-1zM34 22h1v1h-1zM36 22h1v1h-1zM37 22h1v1h-1zM38 22h1v1h-1zM40 22h1v1h-1zM4 23h1v1h-1zM7 23h1v1h-1zM9 23h1v1h-1zM12 23h1v1h-1zM13 23h1v1h-1zM14 23h1v1h-1zM19 23h1v1h-1zM20 23h1v1h-1zM23 23h1v1h-1zM27 23h1v1h-1zM29 23h1v1h-1zM32 23h1v1h-1zM33 23h1v1h-1zM34 23h1v1h-1zM36 23h1v1h-1zM37 23h1v1h-1zM40 23h1v1h-1zM7 24h1v1h-1zM8 24h1v1h-1zM10 24h1v1h-1zM11 24h1v1h-1zM12 24h1v1h-1zM13 24h1v1h-1zM14 24h1v1h-1zM15 24h1v1h-1zM16 24h1v1h-1zM21 24h1v1h-1zM23 24h1v1h-1zM28 24h1v1h-1zM31 24h1v1h-1zM32 24h1v1h-1zM33 24h1v1h-1zM34 24h1v1h-1zM35 24h1v1h-1zM36 24h1v1h-1zM37 24h1v1h-1zM4 25h1v1h-1zM5 25h1v1h-1zM6 25h1v1h-1zM7 25h1v1h-1zM8 25h1v1h-1zM9 25h1v1h-1zM15 25h1v1h-1zM16 25h1v1h-1zM18 25h1v1h-1zM19 25h1v1h-1zM22 25h1v1h-1zM23 25h1v1h-1zM25 25h1v1h-1zM27 25h1v1h-1zM28 25h1v1h-1zM29 25h1v1h-1zM30 25h1v1h-1zM31 25h1v1h-1zM36 25h1v1h-1zM38 25h1v1h-1zM4 26h1v1h-1zM6 26h1v1h-1zM7 26h1v1h-1zM10 26h1v1h-1zM11 26h1v1h-1zM12 26h1v1h-1zM14 26h1v1h-1zM17 26h1v1h-1zM18 26h1v1h-1zM19 26h1v1h-1zM22 26h1v1h-1zM25 26h1v1h-1zM26 26h1v1h-1zM27 26h1v1h-1zM28 26h1v1h-1zM31 26h1v1h-1zM35 26h1v1h-1zM37 26h1v1h-1zM40 26h1v1h-1zM4 27h1v1h-1zM8 27h1v1h-1zM9 27h1v1h-1zM11 27h1v1h-1zM12 27h1v1h-1zM13 27h1v1h-1zM14 27h1v1h-1zM17 27h1v1h-1zM18 27h1v1h-1zM21 27h1v1h-1zM32 27h1v1h-1zM35 27h1v1h-1zM36 27h1v1h-1zM37 27h1v1h-1zM38 27h1v1h-1zM39 27h1v1h-1zM4 28h1v1h-1zM6 28h1v1h-1zM7 28h1v1h-1zM10 28h1v1h-1zM15 28h1v1h-1zM19 28h1v1h-1zM20 28h1v1h-1zM27 28h1v1h-1zM28 28h1v1h-1zM31 28h1v1h-1zM34 28h1v1h-1zM4 29h1v1h-1zM7 29h1v1h-1zM8 29h1v1h-1zM9 29h1v1h-1zM12 29h1v1h-1zM14 29h1v1h-1zM15 29h1v1h-1zM17 29h1v1h-1zM22 29h1v1h-1zM27 29h1v1h-1zM28 29h1v1h-1zM30 29h1v1h-1zM31 29h1v1h-1zM32 29h1v1h-1zM33 29h1v1h-1zM36 29h1v1h-1zM38 29h1v1h-1zM4 30h1v1h-1zM5 30h1v1h-1zM7 30h1v1h-1zM8 30h1v1h-1zM10 30h1v1h-1zM11 30h1v1h-1zM13 30h1v1h-1zM14 30h1v1h-1zM16 30h1v1h-1zM18 30h1v1h-1zM19 30h1v1h-1zM20 30h1v1h-1zM21 30h1v1h-1zM22 30h1v1h-1zM23 30h1v1h-1zM24 30h1v1h-1zM25 30h1v1h-1zM29 30h1v1h-1zM30 30h1v1h-1zM31 30h1v1h-1zM33 30h1v1h-1zM36 30h1v1h-1zM38 30h1v1h-1zM39 30h1v1h-1zM40 30h1v1h-1zM4 31h1v1h-1zM7 31h1v1h-1zM11 31h1v1h-1zM12 31h1v1h-1zM14 31h1v1h-1zM15 31h1v1h-1zM16 31h1v1h-1zM24 31h1v1h-1zM31 31h1v1h-1zM35 31h1v1h-1zM38 31h1v1h-1zM4 32h1v1h-1zM7 32h1v1h-1zM8 32h1v1h-1zM9 32h1v1h-1zM10 32h1v1h-1zM12 32h1v1h-1zM14 32h1v1h-1zM16 32h1v1h-1zM17 32h1v1h-1zM18 32h1v1h-1zM23 32h1v1h-1zM24 32h1v1h-1zM26 32h1v1h-1zM27 32h1v1h-1zM29 32h1v1h-1zM32 32h1v1h-1zM33 32h1v1h-1zM34 32h1v1h-1zM35 32h1v1h-1zM36 32h1v1h-1zM37 32h1v1h-1zM38 32h1v1h-1zM39 32h1v1h-1zM40 32h1v1h-1zM12 33h1v1h-1zM14 33h1v1h-1zM16 33h1v1h-1zM17 33h1v1h-1zM19 33h1v1h-1zM22 33h1v1h-1zM23 33h1v1h-1zM24 33h1v1h-1zM26 33h1v1h-1zM29 33h1v1h-1zM31 33h1v1h-1zM32 33h1v1h-1zM36 33h1v1h-1zM38 33h1v1h-1zM39 33h1v1h-1zM4 34h1v1h-1zM5 34h1v1h-1zM6 34h1v1h-1zM7 34h1v1h-1zM8 34h1v1h-1zM9 34h1v1h-1zM10 34h1v1h-1zM12 34h1v1h-1zM14 34h1v1h-1zM15 34h1v1h-1zM18 34h1v1h-1zM19 34h1v1h-1zM21 34h1v1h-1zM22 34h1v1h-1zM23 34h1v1h-1zM24 34h1v1h-1zM25 34h1v1h-1zM27 34h1v1h-1zM29 34h1v1h-1zM30 34h1v1h-1zM32 34h1v1h-1zM34 34h1v1h-1zM36 34h1v1h-1zM40 34h1v1h-1zM4 35h1v1h-1zM10 35h1v1h-1zM12 35h1v1h-1zM16 35h1v1h-1zM20 35h1v1h-1zM26 35h1v1h-1zM29 35h1v1h-1zM31 35h1v1h-1zM32 35h1v1h-1zM36 35h1v1h-1zM39 35h1v1h-1zM40 35h1v1h-1zM4 36h1v1h-1zM6 36h1v1h-1zM7 36h1v1h-1zM8 36h1v1h-1zM10 36h1v1h-1zM12 36h1v1h-1zM13 36h1v1h-1zM17 36h1v1h-1zM18 36h1v1h-1zM20 36h1v1h-1zM21 36h1v1h-1zM28 36h1v1h-1zM30 36h1v1h-1zM31 36h1v1h-1zM32 36h1v1h-1zM33 36h1v1h-1zM34 36h1v1h-1zM35 36h1v1h-1zM36 36h1v1h-1zM40 36h1v1h-1zM4 37h1v1h-1zM6 37h1v1h-1zM7 37h1v1h-1zM8 37h1v1h-1zM10 37h1v1h-1zM12 37h1v1h-1zM15 37h1v1h-1zM19 37h1v1h-1zM21 37h1v1h-1zM22 37h1v1h-1zM23 37h1v1h-1zM26 37h1v1h-1zM27 37h1v1h-1zM30 37h1v1h-1zM31 37h1v1h-1zM32 37h1v1h-1zM33 37h1v1h-1zM34 37h1v1h-1zM37 37h1v1h-1zM39 37h1v1h-1zM40 37h1v1h-1zM4 38h1v1h-1zM6 38h1v1h-1zM7 38h1v1h-1zM8 38h1v1h-1zM10 38h1v1h-1zM15 38h1v1h-1zM16 38h1v1h-1zM18 38h1v1h-1zM19 38h1v1h-1zM20 38h1v1h-1zM22 38h1v1h-1zM24 38h1v1h-1zM27 38h1v1h-1zM28 38h1v1h-1zM31 38h1v1h-1zM33 38h1v1h-1zM36 38h1v1h-1zM38 38h1v1h-1zM40 38h1v1h-1zM4 39h1v1h-1zM10 39h1v1h-1zM13 39h1v1h-1zM14 39h1v1h-1zM16 39h1v1h-1zM17 39h1v1h-1zM20 39h1v1h-1zM21 39h1v1h-1zM24 39h1v1h-1zM26 39h1v1h-1zM33 39h1v1h-1zM34 39h1v1h-1zM36 39h1v1h-1zM38 39h1v1h-1zM39 39h1v1h-1zM40 39h1v1h-1zM4 40h1v1h-1zM5 40h1v1h-1zM6 40h1v1h-1zM7 40h1v1h-1zM8 40h1v1h-1zM9 40h1v1h-1zM10 40h1v1h-1zM12 40h1v1h-1zM15 40h1v1h-1zM17 40h1v1h-1zM18 40h1v1h-1zM19 40h1v1h-1zM20 40h1v1h-1zM22 40h1v1h-1zM23 40h1v1h-1zM24 40h1v1h-1zM26 40h1v1h-1zM28 40h1v1h-1zM32 40h1v1h-1zM35 40h1v1h-1zM40 40h1v1h-1z" fill="#000000"/></svg>
